<svg width="98" height="33" viewBox="0 0 98 33" fill="none" xmlns="http://www.w3.org/2000/svg">
<path fill-rule="evenodd" clip-rule="evenodd" d="M21.8069 29.6398H4.71267V32.5231L24.7355 32.5703V0.5L22.0944 0.588035L12.8592 20.3718L3.615 0.527568H0.981445V32.4983L3.91002 32.596V8.09428L12.8577 27.3019L21.8069 8.13077V29.6398ZM12.8586 22.2964L12.8587 22.2966L22.6205 1.38444L22.6204 1.38445L12.8586 22.2964ZM1.79513 1.34106H1.79494V31.7115L3.09653 31.7549V31.7548L1.79513 31.7114V1.34106ZM23.922 31.7548L5.52636 31.7114V30.4533H5.52617V31.7115L23.922 31.7549V31.7548ZM22.6204 30.4532H22.6206V4.46479L22.6204 4.4652V30.4532ZM12.8585 25.3771L3.09672 4.4219V4.4214L12.8586 25.3768L12.8585 25.3771Z" fill="url(#paint0_linear_606_752)"/>
<path d="M51.7967 28.7351L51.7985 28.7325C53.44 26.4643 54.218 23.0118 54.218 18.4649V14.323C54.218 9.77786 53.4406 6.3378 51.7976 4.09639C50.1257 1.78714 47.441 0.678711 43.8704 0.678711C40.2997 0.678711 37.615 1.78714 35.9431 4.09641C34.3001 6.33782 33.5227 9.77787 33.5227 14.323V18.4649C33.5227 23.0118 34.3007 26.4643 35.9422 28.7325L35.9441 28.7351C37.6168 31.0161 40.3015 32.1092 43.8704 32.1092C47.4392 32.1092 50.1239 31.0161 51.7967 28.7351ZM47.2465 3.4648L47.2464 3.46495L47.2584 3.46906C48.1588 3.77778 48.9785 4.32036 49.7177 5.11236C50.4286 5.87399 50.9905 7.01086 51.3728 8.56748L51.3733 8.56949C51.7546 10.0946 51.9501 12.0091 51.9501 14.323V18.4649C51.9501 20.7781 51.7547 22.7074 51.373 24.2619C50.9912 25.7885 50.4298 26.9126 49.7177 27.6756C48.9781 28.468 48.1564 29.0263 47.2524 29.3632C46.3334 29.6773 45.2097 29.8413 43.8704 29.8413C42.531 29.8413 41.4073 29.6773 40.4883 29.3632C39.5843 29.0263 38.7626 28.468 38.023 27.6756C37.3108 26.9125 36.7495 25.7885 36.3677 24.2618C35.986 22.7073 35.7906 20.7781 35.7906 18.4649V14.323C35.7906 12.0091 35.9861 10.0946 36.3674 8.56949L36.3674 8.56949L36.3679 8.56748C36.7502 7.01086 37.3121 5.87399 38.023 5.11236C38.7622 4.32036 39.5819 3.77778 40.4823 3.46906L40.4823 3.46921L40.4942 3.4648C41.4103 3.12454 42.5316 2.94665 43.8704 2.94665C45.2091 2.94665 46.3304 3.12454 47.2465 3.4648Z" fill="url(#paint1_linear_606_752)" stroke="url(#paint2_linear_606_752)"/>
<path fill-rule="evenodd" clip-rule="evenodd" d="M52.0291 29.0177L52.0261 29.0218C50.2814 31.4009 47.4932 32.5154 43.864 32.5154C40.2348 32.5154 37.4466 31.4009 35.7018 29.0217L35.6989 29.0177C34.0037 26.6753 33.2239 23.1481 33.2239 18.5787V14.4367C33.2239 9.86999 34.0027 6.35431 35.7004 4.03794C37.4437 1.63051 40.232 0.5 43.864 0.5C47.496 0.5 50.2842 1.63048 52.0275 4.03782C53.7252 6.35419 54.5041 9.86992 54.5041 14.4367V18.5787C54.5041 23.1481 53.7243 26.6753 52.0291 29.0177ZM51.3871 4.50457C49.8374 2.36316 47.3297 1.29246 43.864 1.29246C40.3983 1.29246 37.8906 2.36316 36.3409 4.50457C34.7912 6.6178 34.0163 9.92852 34.0163 14.4367V18.5787C34.0163 23.0869 34.7912 26.4117 36.3409 28.5531C37.8906 30.6663 40.3983 31.723 43.864 31.723C47.3297 31.723 49.8374 30.6663 51.3871 28.5531C52.9368 26.4117 53.7116 23.0869 53.7116 18.5787V14.4367C53.7116 9.92852 52.9368 6.6178 51.3871 4.50457ZM35.876 8.56197C35.4815 10.1398 35.2843 12.0981 35.2843 14.4367V18.5787C35.2843 20.9173 35.4815 22.8897 35.876 24.4957C36.2704 26.0736 36.8622 27.2852 37.6511 28.1305C38.44 28.9758 39.3276 29.5816 40.3138 29.9478C41.2999 30.286 42.4833 30.455 43.864 30.455C45.2446 30.455 46.428 30.286 47.4142 29.9478C48.4004 29.5816 49.2879 28.9758 50.0769 28.1305C50.8658 27.2852 51.4575 26.0736 51.852 24.4957C52.2465 22.8897 52.4437 20.9173 52.4437 18.5787V14.4367C52.4437 12.0981 52.2465 10.1398 51.852 8.56197C51.4575 6.95591 50.8658 5.73024 50.0769 4.88495C49.2879 4.03966 48.4004 3.44795 47.4142 3.10984C46.428 2.74355 45.2446 2.5604 43.864 2.5604C42.4833 2.5604 41.2999 2.74355 40.3138 3.10984C39.3276 3.44795 38.44 4.03966 37.6511 4.88495C36.8622 5.73024 36.2704 6.95591 35.876 8.56197ZM47.1476 29.2015C48.0036 28.8818 48.7868 28.3513 49.4975 27.5898C50.1648 26.8748 50.7084 25.8019 51.0828 24.3052C51.457 22.7809 51.6512 20.8768 51.6512 18.5787V14.4367C51.6512 12.1373 51.4568 10.2484 51.0832 8.75417L51.0824 8.75099C50.7072 7.22328 50.1627 6.13836 49.4975 5.42566C48.7874 4.66483 48.0075 4.15098 47.1572 3.85946L47.1477 3.85621L47.1383 3.85271C46.2632 3.52767 45.1783 3.35286 43.864 3.35286C42.5497 3.35286 41.4648 3.52767 40.5897 3.85271L40.5803 3.85621L40.5708 3.85946C39.7205 4.15098 38.9405 4.66483 38.2304 5.42566C37.5652 6.13836 37.0208 7.22328 36.6456 8.75099L36.6448 8.75417C36.2712 10.2484 36.0767 12.1373 36.0767 14.4367V18.5787C36.0767 20.8768 36.271 22.7809 36.6452 24.3052C37.0196 25.8019 37.5632 26.8748 38.2304 27.5898C38.9412 28.3513 39.7244 28.8818 40.5803 29.2015C41.4602 29.5016 42.5489 29.6626 43.864 29.6626C45.179 29.6626 46.2678 29.5016 47.1476 29.2015Z" fill="url(#paint3_linear_606_752)"/>
<path fill-rule="evenodd" clip-rule="evenodd" d="M82.2851 29.7115H67.4137V32.5H86.2735L74.6329 0.5L62.9924 32.5H65.9629L74.6328 8.66751L82.2851 29.7115ZM64.0985 31.7254H65.4204L74.6329 6.40139L74.6329 6.40127L65.4204 31.7254H64.0985L64.0985 31.7254ZM74.6329 2.76589L74.6329 2.76596L85.1674 31.7254H68.1883V31.7254H85.1674L74.6329 2.76589Z" fill="url(#paint4_linear_606_752)"/>
<path fill-rule="evenodd" clip-rule="evenodd" d="M94.6504 32.499H97.5791V0.5H94.6504V32.499ZM96.7656 1.31353V31.6854H96.7655V1.31366H95.4639V1.31353H96.7656Z" fill="url(#paint5_linear_606_752)"/>
<defs>
<linearGradient id="paint0_linear_606_752" x1="13.0668" y1="5.95631" x2="13.0668" y2="28.7444" gradientUnits="userSpaceOnUse">
<stop stop-color="#01F0FF"/>
<stop offset="1" stop-color="#3CA7EF"/>
</linearGradient>
<linearGradient id="paint1_linear_606_752" x1="43.8704" y1="30.2398" x2="43.8704" y2="7.72127" gradientUnits="userSpaceOnUse">
<stop stop-color="#D11763"/>
<stop offset="1" stop-color="#F34D33"/>
</linearGradient>
<linearGradient id="paint2_linear_606_752" x1="43.8704" y1="30.2398" x2="43.8704" y2="7.72127" gradientUnits="userSpaceOnUse">
<stop stop-color="#D11763"/>
<stop offset="1" stop-color="#F34D33"/>
</linearGradient>
<linearGradient id="paint3_linear_606_752" x1="43.864" y1="31.0747" x2="43.864" y2="7.38332" gradientUnits="userSpaceOnUse">
<stop stop-color="#D11763"/>
<stop offset="1" stop-color="#F34D33"/>
</linearGradient>
<linearGradient id="paint4_linear_606_752" x1="74.6329" y1="5.14" x2="75.1172" y2="26.9186" gradientUnits="userSpaceOnUse">
<stop stop-color="#F8792B"/>
<stop offset="0.9999" stop-color="#FAB519"/>
<stop offset="1" stop-color="#ECB22F"/>
</linearGradient>
<linearGradient id="paint5_linear_606_752" x1="96.0417" y1="0.847906" x2="96.0417" y2="32.4224" gradientUnits="userSpaceOnUse">
<stop stop-color="#3DB54A"/>
<stop offset="1" stop-color="#D0EA16"/>
</linearGradient>
</defs>
</svg>
